<?xml version="1.0" encoding="utf-8"?>
<!-- Generator: Adobe Illustrator 21.1.0, SVG Export Plug-In . SVG Version: 6.00 Build 0)  -->
<svg version="1.1" id="Layer_1" xmlns="http://www.w3.org/2000/svg" xmlns:xlink="http://www.w3.org/1999/xlink" x="0px" y="0px"
	 width="467.356px" height="467.608px" viewBox="0 0 467.356 467.608" style="enable-background:new 0 0 467.356 467.608;"
	 xml:space="preserve">
<style type="text/css">
	.st0{fill:#EB3A24;}
	.st1{fill:#FFFFFF;}
	.st2{opacity:0;fill:#FFFFFF;}
</style>
<g>
	<path class="st0" d="M445.916,235.378c0-117.226-95.022-212.24-212.234-212.24c-117.218,0-212.241,95.015-212.241,212.24
		c0,117.208,95.023,212.23,212.241,212.23C350.893,447.608,445.916,352.586,445.916,235.378z"/>
	<path class="st1" d="M233.681,23.138c117.212,0,212.234,95.015,212.234,212.24c0,117.208-95.022,212.23-212.234,212.23
		c-117.218,0-212.241-95.022-212.241-212.23C21.44,118.152,116.463,23.138,233.681,23.138 M233.681,3.138
		c-31.344,0-61.76,6.143-90.405,18.257c-27.658,11.698-52.493,28.439-73.815,49.761C48.14,92.478,31.397,117.312,19.699,144.97
		C7.583,173.615,1.44,204.033,1.44,235.378c0,31.341,6.143,61.756,18.259,90.399c11.698,27.656,28.441,52.49,49.763,73.811
		c21.322,21.321,46.157,38.064,73.814,49.761c28.645,12.115,59.061,18.258,90.405,18.258c31.342,0,61.758-6.143,90.402-18.259
		c27.656-11.698,52.491-28.44,73.812-49.761c21.322-21.321,38.064-46.155,49.762-73.811c12.116-28.643,18.259-59.058,18.259-90.399
		c0-31.345-6.143-61.763-18.259-90.408c-11.698-27.658-28.44-52.492-49.762-73.814c-21.321-21.321-46.156-38.063-73.812-49.761
		C295.439,9.28,265.024,3.138,233.681,3.138L233.681,3.138z"/>
</g>
<g id="info">
	<path class="st1" d="M291.143,330.743c-1.187-1.738-3.463-2.357-5.364-1.456c-21.031,9.956-44.9,20.481-49.585,21.401
		c-0.118-0.105-0.305-0.298-0.551-0.63c-0.635-0.86-0.944-1.983-0.944-3.435c0-11.896,8.979-48.085,26.686-107.556
		c14.93-49.968,16.656-60.314,16.656-63.749c0-5.303-2.03-9.783-5.873-12.958c-3.651-3.011-8.751-4.536-15.159-4.536
		c-10.659,0-23.013,4.047-37.768,12.372c-14.298,8.07-30.245,21.739-47.393,40.626c-1.342,1.479-1.483,3.691-0.338,5.328
		c1.146,1.638,3.272,2.262,5.121,1.509c6.02-2.457,36.276-14.851,40.686-17.621c3.611-2.264,6.737-3.413,9.292-3.413
		c0.092,0,0.17,0.003,0.236,0.009c0.031,0.169,0.06,0.428,0.06,0.798c0,2.607-0.536,5.693-1.588,9.157
		c-25.782,83.534-38.315,134.743-38.315,156.556c0,7.698,2.14,13.895,6.358,18.418c4.299,4.614,10.098,6.953,17.235,6.953
		c7.606,0,16.864-3.177,28.301-9.714c11.067-6.324,27.959-20.236,51.642-42.534C292.074,334.825,292.33,332.482,291.143,330.743z"/>
	<path class="st1" d="M290.316,88.73c-4.213-4.313-9.605-6.499-16.023-6.499c-7.991,0-14.95,3.158-20.683,9.386
		c-5.641,6.126-8.502,13.642-8.502,22.34c0,6.872,2.107,12.568,6.262,16.927c4.211,4.425,9.53,6.668,15.807,6.668
		c7.664,0,14.586-3.335,20.573-9.912c5.883-6.462,8.866-14.059,8.866-22.58C296.616,98.511,294.497,93.018,290.316,88.73z"/>
</g>
<path id="close" class="st2" d="M341.377,176.701c2.112-2.816,3.168-5.983,3.168-9.503c0-3.52-1.056-6.336-3.168-8.448
	l-24.285-24.285c-2.112-2.112-4.928-3.168-8.448-3.168c-3.52,0-6.687,1.056-9.503,3.168l-65.464,65.464l-65.464-65.464
	c-2.816-2.112-5.983-3.168-9.503-3.168c-3.52,0-6.336,1.056-8.448,3.168l-24.285,24.285c-2.112,2.112-3.168,4.928-3.168,8.448
	c0,3.52,1.056,6.687,3.168,9.503l65.464,65.464l-65.464,65.464c-2.112,2.816-3.168,5.983-3.168,9.503s1.056,6.336,3.168,8.448
	l24.285,24.285c2.112,2.112,4.928,3.169,8.448,3.169c3.52,0,6.687-1.057,9.503-3.169l65.464-65.464l65.464,65.464
	c2.816,2.112,5.983,3.169,9.503,3.169c3.52,0,6.336-1.057,8.448-3.169l24.285-24.285c2.112-2.112,3.168-4.928,3.168-8.448
	s-1.056-6.687-3.168-9.503l-65.464-65.464L341.377,176.701z"/>
</svg>
